<svg width="51" height="51" viewBox="0 0 51 51" fill="none" xmlns="http://www.w3.org/2000/svg">
<rect x="0.184814" y="0.282227" width="50.2087" height="50.2087" rx="7.76355" fill="#9200E9"/>
<path d="M32.9789 34.175C33.5856 34.175 34.0774 33.6831 34.0774 33.0764C34.0774 32.4697 33.5856 31.9779 32.9789 31.9779C32.3722 31.9779 31.8804 32.4697 31.8804 33.0764C31.8804 33.6831 32.3722 34.175 32.9789 34.175Z" fill="white"/>
<path d="M28.5846 34.175C29.1913 34.175 29.6831 33.6831 29.6831 33.0764C29.6831 32.4697 29.1913 31.9779 28.5846 31.9779C27.9779 31.9779 27.4861 32.4697 27.4861 33.0764C27.4861 33.6831 27.9779 34.175 28.5846 34.175Z" fill="white"/>
<path d="M38.4138 28.3335L34.5222 16.6561C34.3036 15.9994 33.8838 15.4282 33.3224 15.0235C32.7609 14.6188 32.0863 14.4011 31.3941 14.4014H29.6832C29.3918 14.4014 29.1124 14.5171 28.9064 14.7231C28.7004 14.9291 28.5847 15.2085 28.5847 15.4999C28.5847 15.7912 28.7004 16.0707 28.9064 16.2767C29.1124 16.4827 29.3918 16.5984 29.6832 16.5984H31.3941C31.6237 16.5999 31.847 16.6733 32.0327 16.8083C32.2185 16.9433 32.3572 17.133 32.4295 17.3509L35.8487 27.5837H14.7294L18.1486 17.3509C18.2209 17.133 18.3597 16.9433 18.5454 16.8083C18.7311 16.6733 18.9544 16.5999 19.184 16.5984H20.8949C21.1863 16.5984 21.4657 16.4827 21.6717 16.2767C21.8777 16.0707 21.9935 15.7912 21.9935 15.4999C21.9935 15.2085 21.8777 14.9291 21.6717 14.7231C21.4657 14.5171 21.1863 14.4014 20.8949 14.4014H19.184C18.4919 14.4011 17.8172 14.6188 17.2558 15.0235C16.6943 15.4282 16.2745 15.9994 16.0559 16.6561L12.1644 28.3335C12.1503 28.392 12.1429 28.4519 12.1424 28.512C12.125 28.5675 12.113 28.6245 12.1067 28.6823V34.1749C12.1067 35.3403 12.5696 36.458 13.3937 37.282C14.2178 38.1061 15.3354 38.5691 16.5008 38.5691H34.0773C35.2427 38.5691 36.3604 38.1061 37.1844 37.282C38.0085 36.458 38.4714 35.3403 38.4714 34.1749V28.6823C38.4651 28.6245 38.4532 28.5675 38.4357 28.512C38.4352 28.4519 38.4278 28.392 38.4138 28.3335ZM36.2744 34.1749C36.2744 34.7576 36.0429 35.3165 35.6309 35.7285C35.2188 36.1405 34.66 36.372 34.0773 36.372H16.5008C15.9181 36.372 15.3593 36.1405 14.9473 35.7285C14.5352 35.3165 14.3038 34.7576 14.3038 34.1749V29.7808H36.2744V34.1749Z" fill="white"/>
<path d="M17.5993 34.175H24.1905C24.4818 34.175 24.7612 34.0592 24.9672 33.8532C25.1732 33.6472 25.289 33.3678 25.289 33.0764C25.289 32.7851 25.1732 32.5057 24.9672 32.2997C24.7612 32.0936 24.4818 31.9779 24.1905 31.9779H17.5993C17.3079 31.9779 17.0285 32.0936 16.8225 32.2997C16.6165 32.5057 16.5007 32.7851 16.5007 33.0764C16.5007 33.3678 16.6165 33.6472 16.8225 33.8532C17.0285 34.0592 17.3079 34.175 17.5993 34.175Z" fill="white"/>
<path d="M25.289 12.2043C24.9977 12.2043 24.7183 12.3201 24.5122 12.5261C24.3062 12.7321 24.1905 13.0115 24.1905 13.3029V21.6352L22.7706 20.2154C22.5645 20.0093 22.2849 19.8935 21.9934 19.8935C21.7019 19.8935 21.4223 20.0093 21.2162 20.2154C21.0101 20.4215 20.8943 20.7011 20.8943 20.9926C20.8943 21.2841 21.0101 21.5637 21.2162 21.7698L24.5118 25.0654C24.6138 25.1675 24.735 25.2486 24.8684 25.3038C25.0017 25.3591 25.1447 25.3876 25.289 25.3876C25.4334 25.3876 25.5763 25.3591 25.7097 25.3038C25.8431 25.2486 25.9642 25.1675 26.0662 25.0654L29.3618 21.7698C29.568 21.5637 29.6838 21.2841 29.6838 20.9926C29.6838 20.7011 29.568 20.4215 29.3618 20.2154C29.1557 20.0093 28.8761 19.8935 28.5846 19.8935C28.2931 19.8935 28.0135 20.0093 27.8074 20.2154L26.3876 21.6352V13.3029C26.3876 13.0115 26.2718 12.7321 26.0658 12.5261C25.8598 12.3201 25.5804 12.2043 25.289 12.2043Z" fill="white"/>
</svg>
