<svg width="51" height="52" viewBox="0 0 51 52" fill="none" xmlns="http://www.w3.org/2000/svg">
<rect x="0.470215" y="0.804565" width="50.2087" height="50.2087" rx="7.76355" fill="#BB39AE"/>
<path d="M25.5747 41.4362C16.9991 41.4362 10.0476 34.4847 10.0476 25.9091C10.0476 17.3334 16.9991 10.382 25.5747 10.382C34.1503 10.382 41.1018 17.3334 41.1018 25.9091C41.1018 34.4847 34.1503 41.4362 25.5747 41.4362ZM25.5747 38.3308C28.8692 38.3308 32.0287 37.022 34.3582 34.6925C36.6877 32.363 37.9964 29.2035 37.9964 25.9091C37.9964 22.6146 36.6877 19.4551 34.3582 17.1256C32.0287 14.7961 28.8692 13.4874 25.5747 13.4874C22.2803 13.4874 19.1208 14.7961 16.7913 17.1256C14.4617 19.4551 13.153 22.6146 13.153 25.9091C13.153 29.2035 14.4617 32.363 16.7913 34.6925C19.1208 37.022 22.2803 38.3308 25.5747 38.3308ZM27.1274 25.9091H33.3383V29.0145H24.022V18.1455H27.1274V25.9091Z" fill="white"/>
</svg>
